<mxfile host="app.diagrams.net" modified="2023-08-28T00:04:08.402Z" agent="Mozilla/5.0 (X11; Ubuntu; Linux x86_64; rv:109.0) Gecko/20100101 Firefox/116.0" etag="aIbYYQQezjoRGXQKi8O4" version="21.6.8" type="device">
  <diagram name="PÃ¡gina-1" id="0nMSvrHoLWl8695RyMBo">
    <mxGraphModel dx="1250" dy="2050" grid="1" gridSize="10" guides="1" tooltips="1" connect="1" arrows="1" fold="1" page="1" pageScale="1" pageWidth="827" pageHeight="1169" math="0" shadow="0">
      <root>
        <mxCell id="0" />
        <mxCell id="1" parent="0" />
        <mxCell id="PKR8pkHpNctmx939JkTJ-4" value="" style="edgeStyle=orthogonalEdgeStyle;rounded=0;orthogonalLoop=1;jettySize=auto;html=1;" edge="1" parent="1" source="PKR8pkHpNctmx939JkTJ-1" target="PKR8pkHpNctmx939JkTJ-3">
          <mxGeometry relative="1" as="geometry" />
        </mxCell>
        <mxCell id="PKR8pkHpNctmx939JkTJ-1" value="Usuario" style="shape=umlActor;verticalLabelPosition=bottom;verticalAlign=top;html=1;outlineConnect=0;" vertex="1" parent="1">
          <mxGeometry x="300" y="-460" width="30" height="60" as="geometry" />
        </mxCell>
        <mxCell id="PKR8pkHpNctmx939JkTJ-3" value="&lt;div&gt;&lt;br&gt;&lt;/div&gt;&lt;div&gt;Fazer login&lt;/div&gt;" style="ellipse;whiteSpace=wrap;html=1;verticalAlign=top;" vertex="1" parent="1">
          <mxGeometry x="470" y="-455" width="75" height="50" as="geometry" />
        </mxCell>
        <mxCell id="PKR8pkHpNctmx939JkTJ-7" value="" style="edgeStyle=orthogonalEdgeStyle;rounded=0;orthogonalLoop=1;jettySize=auto;html=1;" edge="1" parent="1" source="PKR8pkHpNctmx939JkTJ-5" target="PKR8pkHpNctmx939JkTJ-6">
          <mxGeometry relative="1" as="geometry" />
        </mxCell>
        <mxCell id="PKR8pkHpNctmx939JkTJ-11" value="" style="edgeStyle=orthogonalEdgeStyle;rounded=0;orthogonalLoop=1;jettySize=auto;html=1;" edge="1" parent="1" source="PKR8pkHpNctmx939JkTJ-5" target="PKR8pkHpNctmx939JkTJ-10">
          <mxGeometry relative="1" as="geometry" />
        </mxCell>
        <mxCell id="PKR8pkHpNctmx939JkTJ-13" value="" style="edgeStyle=orthogonalEdgeStyle;rounded=0;orthogonalLoop=1;jettySize=auto;html=1;entryX=0;entryY=0.5;entryDx=0;entryDy=0;" edge="1" parent="1" source="PKR8pkHpNctmx939JkTJ-5" target="PKR8pkHpNctmx939JkTJ-12">
          <mxGeometry relative="1" as="geometry">
            <Array as="points">
              <mxPoint x="390" y="-270" />
              <mxPoint x="390" y="-185" />
            </Array>
          </mxGeometry>
        </mxCell>
        <mxCell id="PKR8pkHpNctmx939JkTJ-15" value="" style="edgeStyle=orthogonalEdgeStyle;rounded=0;orthogonalLoop=1;jettySize=auto;html=1;entryX=0;entryY=0.5;entryDx=0;entryDy=0;" edge="1" parent="1" source="PKR8pkHpNctmx939JkTJ-5" target="PKR8pkHpNctmx939JkTJ-14">
          <mxGeometry relative="1" as="geometry">
            <Array as="points">
              <mxPoint x="390" y="-270" />
              <mxPoint x="390" y="-145" />
            </Array>
          </mxGeometry>
        </mxCell>
        <mxCell id="PKR8pkHpNctmx939JkTJ-17" value="" style="edgeStyle=orthogonalEdgeStyle;rounded=0;orthogonalLoop=1;jettySize=auto;html=1;entryX=0;entryY=0.5;entryDx=0;entryDy=0;" edge="1" parent="1" source="PKR8pkHpNctmx939JkTJ-5" target="PKR8pkHpNctmx939JkTJ-16">
          <mxGeometry relative="1" as="geometry">
            <Array as="points">
              <mxPoint x="390" y="-270" />
              <mxPoint x="390" y="-95" />
            </Array>
          </mxGeometry>
        </mxCell>
        <mxCell id="PKR8pkHpNctmx939JkTJ-18" style="edgeStyle=orthogonalEdgeStyle;rounded=0;orthogonalLoop=1;jettySize=auto;html=1;" edge="1" parent="1" source="PKR8pkHpNctmx939JkTJ-5">
          <mxGeometry relative="1" as="geometry">
            <mxPoint x="315" y="-370" as="targetPoint" />
          </mxGeometry>
        </mxCell>
        <mxCell id="PKR8pkHpNctmx939JkTJ-5" value="Secretaria" style="shape=umlActor;verticalLabelPosition=bottom;verticalAlign=top;html=1;outlineConnect=0;" vertex="1" parent="1">
          <mxGeometry x="300" y="-300" width="30" height="60" as="geometry" />
        </mxCell>
        <mxCell id="PKR8pkHpNctmx939JkTJ-6" value="Gerenciar curriculo" style="ellipse;whiteSpace=wrap;html=1;verticalAlign=top;" vertex="1" parent="1">
          <mxGeometry x="470" y="-282.5" width="130" height="25" as="geometry" />
        </mxCell>
        <mxCell id="PKR8pkHpNctmx939JkTJ-10" value="Gerenciar aluno" style="ellipse;whiteSpace=wrap;html=1;verticalAlign=top;" vertex="1" parent="1">
          <mxGeometry x="480" y="-240" width="110" height="30" as="geometry" />
        </mxCell>
        <mxCell id="PKR8pkHpNctmx939JkTJ-12" value="Gerenciar professores" style="ellipse;whiteSpace=wrap;html=1;verticalAlign=top;" vertex="1" parent="1">
          <mxGeometry x="465" y="-200" width="140" height="30" as="geometry" />
        </mxCell>
        <mxCell id="PKR8pkHpNctmx939JkTJ-14" value="Gerar curriculo" style="ellipse;whiteSpace=wrap;html=1;verticalAlign=top;" vertex="1" parent="1">
          <mxGeometry x="465" y="-160" width="135" height="30" as="geometry" />
        </mxCell>
        <mxCell id="PKR8pkHpNctmx939JkTJ-16" value="Calcular custos de um curriculo" style="ellipse;whiteSpace=wrap;html=1;verticalAlign=top;" vertex="1" parent="1">
          <mxGeometry x="441.25" y="-110" width="187.5" height="30" as="geometry" />
        </mxCell>
        <mxCell id="PKR8pkHpNctmx939JkTJ-20" style="edgeStyle=orthogonalEdgeStyle;rounded=0;orthogonalLoop=1;jettySize=auto;html=1;" edge="1" parent="1" source="PKR8pkHpNctmx939JkTJ-19" target="PKR8pkHpNctmx939JkTJ-1">
          <mxGeometry relative="1" as="geometry">
            <mxPoint x="240" y="-420" as="targetPoint" />
            <Array as="points">
              <mxPoint x="260" y="30" />
              <mxPoint x="260" y="-430" />
            </Array>
          </mxGeometry>
        </mxCell>
        <mxCell id="PKR8pkHpNctmx939JkTJ-23" value="" style="edgeStyle=orthogonalEdgeStyle;rounded=0;orthogonalLoop=1;jettySize=auto;html=1;" edge="1" parent="1" source="PKR8pkHpNctmx939JkTJ-19" target="PKR8pkHpNctmx939JkTJ-22">
          <mxGeometry relative="1" as="geometry" />
        </mxCell>
        <mxCell id="PKR8pkHpNctmx939JkTJ-24" value="" style="edgeStyle=orthogonalEdgeStyle;rounded=0;orthogonalLoop=1;jettySize=auto;html=1;" edge="1" parent="1" source="PKR8pkHpNctmx939JkTJ-19" target="PKR8pkHpNctmx939JkTJ-22">
          <mxGeometry relative="1" as="geometry" />
        </mxCell>
        <mxCell id="PKR8pkHpNctmx939JkTJ-26" value="" style="edgeStyle=orthogonalEdgeStyle;rounded=0;orthogonalLoop=1;jettySize=auto;html=1;" edge="1" parent="1" source="PKR8pkHpNctmx939JkTJ-19" target="PKR8pkHpNctmx939JkTJ-22">
          <mxGeometry relative="1" as="geometry" />
        </mxCell>
        <mxCell id="PKR8pkHpNctmx939JkTJ-29" style="edgeStyle=orthogonalEdgeStyle;rounded=0;orthogonalLoop=1;jettySize=auto;html=1;entryX=0;entryY=0.5;entryDx=0;entryDy=0;" edge="1" parent="1" source="PKR8pkHpNctmx939JkTJ-19" target="PKR8pkHpNctmx939JkTJ-28">
          <mxGeometry relative="1" as="geometry" />
        </mxCell>
        <mxCell id="PKR8pkHpNctmx939JkTJ-19" value="Aluno" style="shape=umlActor;verticalLabelPosition=bottom;verticalAlign=top;html=1;outlineConnect=0;" vertex="1" parent="1">
          <mxGeometry x="300" width="30" height="60" as="geometry" />
        </mxCell>
        <mxCell id="PKR8pkHpNctmx939JkTJ-22" value="Gerenciar curso" style="ellipse;whiteSpace=wrap;html=1;verticalAlign=top;" vertex="1" parent="1">
          <mxGeometry x="447.5" y="15" width="157.5" height="30" as="geometry" />
        </mxCell>
        <mxCell id="PKR8pkHpNctmx939JkTJ-28" value="Adicionar uma disciplina" style="ellipse;whiteSpace=wrap;html=1;verticalAlign=top;" vertex="1" parent="1">
          <mxGeometry x="447.5" y="80" width="157.5" height="30" as="geometry" />
        </mxCell>
        <mxCell id="PKR8pkHpNctmx939JkTJ-31" style="edgeStyle=orthogonalEdgeStyle;rounded=0;orthogonalLoop=1;jettySize=auto;html=1;" edge="1" parent="1" target="PKR8pkHpNctmx939JkTJ-1">
          <mxGeometry relative="1" as="geometry">
            <mxPoint x="300" y="230.00000000000023" as="sourcePoint" />
            <mxPoint x="300" y="-400" as="targetPoint" />
            <Array as="points">
              <mxPoint x="200" y="230" />
              <mxPoint x="200" y="-430" />
            </Array>
          </mxGeometry>
        </mxCell>
        <mxCell id="PKR8pkHpNctmx939JkTJ-33" value="" style="edgeStyle=orthogonalEdgeStyle;rounded=0;orthogonalLoop=1;jettySize=auto;html=1;" edge="1" parent="1" source="PKR8pkHpNctmx939JkTJ-30" target="PKR8pkHpNctmx939JkTJ-32">
          <mxGeometry relative="1" as="geometry" />
        </mxCell>
        <mxCell id="PKR8pkHpNctmx939JkTJ-34" value="" style="edgeStyle=orthogonalEdgeStyle;rounded=0;orthogonalLoop=1;jettySize=auto;html=1;" edge="1" parent="1" source="PKR8pkHpNctmx939JkTJ-30" target="PKR8pkHpNctmx939JkTJ-32">
          <mxGeometry relative="1" as="geometry" />
        </mxCell>
        <mxCell id="PKR8pkHpNctmx939JkTJ-37" style="edgeStyle=orthogonalEdgeStyle;rounded=0;orthogonalLoop=1;jettySize=auto;html=1;entryX=0;entryY=0.5;entryDx=0;entryDy=0;" edge="1" parent="1" source="PKR8pkHpNctmx939JkTJ-30" target="PKR8pkHpNctmx939JkTJ-36">
          <mxGeometry relative="1" as="geometry" />
        </mxCell>
        <mxCell id="PKR8pkHpNctmx939JkTJ-30" value="Professor" style="shape=umlActor;verticalLabelPosition=bottom;verticalAlign=top;html=1;outlineConnect=0;" vertex="1" parent="1">
          <mxGeometry x="300" y="200" width="30" height="60" as="geometry" />
        </mxCell>
        <mxCell id="PKR8pkHpNctmx939JkTJ-32" value="Visualizar os alunos matriculados na disciplina" style="ellipse;whiteSpace=wrap;html=1;verticalAlign=top;" vertex="1" parent="1">
          <mxGeometry x="447.5" y="207.5" width="162.5" height="45" as="geometry" />
        </mxCell>
        <mxCell id="PKR8pkHpNctmx939JkTJ-36" value="&lt;br&gt;&lt;div&gt;Visualizar informaÃ§Ãµes sobre uma disciplina&lt;/div&gt;" style="ellipse;whiteSpace=wrap;html=1;verticalAlign=top;" vertex="1" parent="1">
          <mxGeometry x="447.5" y="270" width="172.5" height="65" as="geometry" />
        </mxCell>
      </root>
    </mxGraphModel>
  </diagram>
</mxfile>
